<svg id="svg2" xmlns="http://www.w3.org/2000/svg" xmlns:xlink="http://www.w3.org/1999/xlink" viewBox="0 0 111.16 112.39"><defs><style>.cls-1{fill:url(#linear-gradient);}.cls-2{fill:url(#linear-gradient-2);}</style><linearGradient id="linear-gradient" x1="116.6" y1="-211.33" x2="204.25" y2="-286.74" gradientTransform="matrix(0.56, 0, 0, -0.57, -56.9, -106.34)" gradientUnits="userSpaceOnUse"><stop offset="0" stop-color="#5a9fd4"/><stop offset="1" stop-color="#306998"/></linearGradient><linearGradient id="linear-gradient-2" x1="238" y1="-331.78" x2="206.86" y2="-287.72" gradientTransform="matrix(0.56, 0, 0, -0.57, -56.9, -106.34)" gradientUnits="userSpaceOnUse"><stop offset="0" stop-color="#ffd43b"/><stop offset="1" stop-color="#ffe873"/></linearGradient></defs><title>python-logo</title><path id="path1948" class="cls-1" d="M55.05,11.43a61.86,61.86,0,0,0-10.32.88c-9.14,1.59-10.8,4.93-10.8,11.1v8.14h21.6v2.71H25.83c-6.28,0-11.77,3.73-13.49,10.83-2,8.13-2.07,13.21,0,21.7,1.54,6.33,5.2,10.83,11.48,10.83h7.42V67.86A13.64,13.64,0,0,1,44.73,54.6H66.3A10.82,10.82,0,0,0,77.09,43.74V23.41c0-5.79-4.93-10.14-10.79-11.1A69,69,0,0,0,55.05,11.43ZM43.37,18a4.07,4.07,0,1,1-4,4.08A4.07,4.07,0,0,1,43.37,18Z"/><path id="path1950" class="cls-2" d="M79.79,34.26v9.48A13.77,13.77,0,0,1,66.3,57.28H44.73a11,11,0,0,0-10.8,10.86V88.47c0,5.79,5.09,9.2,10.8,10.86a36.63,36.63,0,0,0,21.57,0c5.43-1.56,10.79-4.69,10.79-10.86V80.33H55.53V77.62H87.89c6.28,0,8.61-4.33,10.8-10.83,2.25-6.69,2.15-13.12,0-21.7-1.55-6.18-4.52-10.83-10.8-10.83ZM67.66,85.76a4.07,4.07,0,1,1-4.06,4.06A4.05,4.05,0,0,1,67.66,85.76Z"/></svg>